<?xml version="1.0" encoding="utf-8"?>
<svg version="1.1" id="Layer_1"
xmlns="http://www.w3.org/2000/svg"
xmlns:xlink="http://www.w3.org/1999/xlink"
width="160px" height="160px"
xml:space="preserve">
<g id="PathID_4" transform="matrix(1, 0, 0, 1, 80, 80)">
<path style="fill:#FFFFFF;fill-opacity:1" d="M19 80L19 48.3L13.5 42.15L13.5 22.75L11.7 22.75L7.9 26.25L-7.3 26.25L-11.15 22.75L-13.15 22.75L-13.15 42.15L-18.45 48.3L-18.45 80L-46 80L-46 73.55L-36.3 63.25L-36.3 36.55L-28.7 36.55L-28.7 20.1L-33.4 20.1L-33.4 10.15L-29.85 10.15L-29.85 5.15L-22 0.75L-22 -5.45L-31.6 -10.7L-31.6 -26.55L-36.9 -26.55L-37.8 -21L-42.75 -21L-42.75 -14.55L-38.05 -14.55L-36 -9.85L-36 1.3L-40.1 5.7L-43.65 5.7L-45.4 7.8L-48 9.85Q-50.35 11 -53.3 11Q-58.25 11 -61.5 7.8Q-65 4.25 -65 -0.45Q-65 -5.15 -61.5 -8.35L-58.25 -10.7L-58.25 -14.55L-53.6 -14.85L-53.6 -21L-57.1 -21L-57.1 -40.35L-43.9 -49.75L-33.7 -49.75L-34.55 -43.3L-23.45 -43.3L-26.35 -55.35L-37.5 -55.35L-41 -60.9L-41 -68.85L-14.6 -80L-8.2 -74.7L-8.2 -59.45L-12.9 -55.35L-9.4 -51.55L10.25 -51.55L13.5 -55.35L8.5 -59.45L8.5 -74.7L14.95 -80L41.3 -68.85L41.3 -60.9L37.8 -55.35L26.35 -55.35L24 -43.3L35.15 -43.3L34.25 -49.75L44.2 -49.75L57.7 -40.35L57.7 -21L54.15 -21L54.15 -14.85L58.55 -14.55L58.55 -10.7L61.5 -8.35Q65 -5.15 65 -0.45Q65 4.25 61.5 7.8Q58.55 11 53.85 11Q48.9 11 45.65 7.8L43.9 5.7L40.7 5.7L36.6 1.3L36.6 -9.85L38.95 -14.55L43.35 -14.55L43.35 -21L37.8 -21L37.15 -26.55L32.2 -26.55L32.2 -10.7L22.55 -5.45L22.55 0.75L30.45 5.15L30.45 10.15L33.95 10.15L33.95 20.1L29.3 20.1L29.3 36.55L36.9 36.55L36.9 63.25L46.55 73.55L46.55 80L19 80" />
<path style="fill:#000000;fill-opacity:0.0117647" d="M-80 80L-80 -80L-14.6 -80L14.95 -80L80 -80L80 80L46.55 80L46.55 73.55L36.9 63.25L36.9 36.55L29.3 36.55L29.3 20.1L33.95 20.1L33.95 10.15L30.45 10.15L30.45 5.15L22.55 0.75L22.55 -5.45L32.2 -10.7L32.2 -26.55L37.15 -26.55L37.8 -21L43.35 -21L43.35 -14.55L38.95 -14.55L36.6 -9.85L36.6 1.3L40.7 5.7L43.9 5.7L45.65 7.8Q48.9 11 53.85 11Q58.55 11 61.5 7.8Q65 4.25 65 -0.45Q65 -5.15 61.5 -8.35L58.55 -10.7L58.55 -14.55L54.15 -14.85L54.15 -21L57.7 -21L57.7 -40.35L44.2 -49.75L34.25 -49.75L35.15 -43.3L24 -43.3L26.35 -55.35L37.8 -55.35L41.3 -60.9L41.3 -68.85L14.95 -80L8.5 -74.7L8.5 -59.45L13.5 -55.35L10.25 -51.55L-9.4 -51.55L-12.9 -55.35L-8.2 -59.45L-8.2 -74.7L-14.6 -80L-41 -68.85L-41 -60.9L-37.5 -55.35L-26.35 -55.35L-23.45 -43.3L-34.55 -43.3L-33.7 -49.75L-43.9 -49.75L-57.1 -40.35L-57.1 -21L-53.6 -21L-53.6 -14.85L-58.25 -14.55L-58.25 -10.7L-61.5 -8.35Q-65 -5.15 -65 -0.45Q-65 4.25 -61.5 7.8Q-58.25 11 -53.3 11Q-50.35 11 -48 9.85L-45.4 7.8L-43.65 5.7L-40.1 5.7L-36 1.3L-36 -9.85L-38.05 -14.55L-42.75 -14.55L-42.75 -21L-37.8 -21L-36.9 -26.55L-31.6 -26.55L-31.6 -10.7L-22 -5.45L-22 0.75L-29.85 5.15L-29.85 10.15L-33.4 10.15L-33.4 20.1L-28.7 20.1L-28.7 36.55L-36.3 36.55L-36.3 63.25L-46 73.55L-46 80L-80 80M-18.45 80L-18.45 48.3L-13.15 42.15L-13.15 22.75L-11.15 22.75L-7.3 26.25L7.9 26.25L11.7 22.75L13.5 22.75L13.5 42.15L19 48.3L19 80L-18.45 80" />
</g>
</svg>
